<?xml version="1.0" encoding="UTF-8"?>
<svg xmlns="http://www.w3.org/2000/svg" xmlns:xlink="http://www.w3.org/1999/xlink" viewBox="0 0 45 45" width="45px" height="45px">
<g id="surface11384964">
<path style=" stroke:none;fill-rule:nonzero;fill:rgb(11.764706%,8.627451%,50.196081%);fill-opacity:1;" d="M 22.5 4.5 C 12.558594 4.5 4.5 12.558594 4.5 22.5 C 4.5 30.933594 10.308594 37.992188 18.136719 39.945312 C 18.054688 39.703125 18 39.421875 18 39.070312 L 18 35.992188 C 17.269531 35.992188 16.046875 35.992188 15.738281 35.992188 C 14.507812 35.992188 13.410156 35.464844 12.878906 34.480469 C 12.289062 33.386719 12.1875 31.714844 10.726562 30.691406 C 10.292969 30.351562 10.625 29.960938 11.125 30.015625 C 12.046875 30.277344 12.8125 30.910156 13.53125 31.847656 C 14.25 32.789062 14.585938 33 15.925781 33 C 16.574219 33 17.546875 32.964844 18.460938 32.820312 C 18.953125 31.570312 19.804688 30.421875 20.84375 29.878906 C 14.851562 29.261719 11.988281 26.277344 11.988281 22.230469 C 11.988281 20.488281 12.730469 18.800781 13.992188 17.378906 C 13.578125 15.96875 13.058594 13.09375 14.152344 12 C 16.847656 12 18.480469 13.75 18.871094 14.222656 C 20.214844 13.761719 21.691406 13.5 23.242188 13.5 C 24.796875 13.5 26.277344 13.761719 27.625 14.222656 C 28.011719 13.753906 29.644531 12 32.347656 12 C 33.445312 13.097656 32.917969 15.984375 32.5 17.390625 C 33.753906 18.808594 34.492188 20.488281 34.492188 22.230469 C 34.492188 26.277344 31.636719 29.257812 25.652344 29.875 C 27.296875 30.734375 28.5 33.148438 28.5 34.96875 L 28.5 39.070312 C 28.5 39.226562 28.464844 39.339844 28.449219 39.472656 C 35.460938 37.015625 40.5 30.355469 40.5 22.5 C 40.5 12.558594 32.441406 4.5 22.5 4.5 Z M 22.5 4.5 "/>
</g>
</svg>
